<svg width="480.00299999999993" height="480.00299999999993" xmlns="http://www.w3.org/2000/svg">

 <g>
  <title>background</title>
  <rect fill="none" id="canvas_background" height="402" width="582" y="-1" x="-1"/>
 </g>
 <g>
  <title>Layer 1</title>
  <path id="svg_5" fill="#ffffff" class="active-path" d="m339.068,110.929c-3.335,-4.073 -6.919,-7.937 -10.731,-11.569l-0.024,0c-23.716,-22.776 -55.35,-35.454 -88.232,-35.36c-2.088,0 -4.192,0.048 -6.296,0.152c-67.558,4.017 -120.628,59.38 -121.784,127.048c-0.328,38.926 17.176,75.862 47.512,100.256c5.491,4.65 8.607,11.518 8.488,18.712l0,17.832c0.042,10.134 6.445,19.15 16,22.528l0,9.472c0.021,5.923 2.245,11.627 6.24,16c-8.32,9.044 -8.32,22.956 0,32c-8.87,9.677 -8.215,24.712 1.461,33.581c2.566,2.352 5.618,4.112 8.939,5.155c3.652,21.716 24.216,36.36 45.932,32.708c16.759,-2.818 29.89,-15.949 32.708,-32.708c12.534,-3.899 19.535,-17.22 15.636,-29.755c-1.038,-3.336 -2.798,-6.403 -5.156,-8.981c8.32,-9.044 8.32,-22.956 0,-32c3.995,-4.373 6.219,-10.077 6.24,-16l0,-9.472c9.555,-3.378 15.958,-12.394 16,-22.528l0,-18.76c0.142,-7.161 3.497,-13.879 9.136,-18.296c54.662,-44.758 62.69,-125.354 17.931,-180.015zm-99.066,353.071c-10.168,-0.012 -19.229,-6.418 -22.632,-16l45.264,0c-3.403,9.582 -12.464,15.988 -22.632,16zm32,-32l-64,0c-4.418,0 -8,-3.582 -8,-8s3.582,-8 8,-8l64,0c4.418,0 8,3.582 8,8s-3.582,8 -8,8zm0,-32l-64,0c-4.418,0 -8,-3.582 -8,-8s3.582,-8 8,-8l64,0c4.418,0 8,3.582 8,8s-3.582,8 -8,8zm8,-40c0,4.418 -3.582,8 -8,8l-64,0c-4.418,0 -8,-3.582 -8,-8l0,-8l80,0l0,8zm31,-81.48l0,0.04c-9.36,7.45 -14.869,18.718 -15,30.68l0,18.76c0,4.418 -3.582,8 -8,8l-96,0c-4.418,0 -8,-3.582 -8,-8l0,-17.832c0.17,-12.028 -5.127,-23.483 -14.4,-31.144c-26.553,-21.332 -41.88,-53.645 -41.6,-87.704c0.987,-59.218 47.422,-107.682 106.544,-111.2c61.76,-3.017 114.272,44.604 117.289,106.364c1.729,35.414 -13.417,69.554 -40.833,92.036z"/>
  <path id="svg_6" fill="#ffffff" class="active-path" d="m240.002,48c4.418,0 8,-3.582 8,-8l0,-32c0,-4.418 -3.582,-8 -8,-8s-8,3.582 -8,8l0,32c0,4.419 3.581,8 8,8z"/>
  <path id="svg_7" fill="#ffffff" class="active-path" d="m311.993,67.291c0.003,0.002 0.006,0.004 0.009,0.005c3.827,2.207 8.72,0.894 10.927,-2.934c0,-0.001 0.001,-0.002 0.001,-0.002l16,-27.704c2.234,-3.812 0.956,-8.713 -2.856,-10.947c-3.812,-2.234 -8.713,-0.956 -10.947,2.856c-0.018,0.03 -0.035,0.061 -0.053,0.092l-16,27.704c-2.213,3.824 -0.906,8.718 2.919,10.93z"/>
  <path id="svg_8" fill="#ffffff" class="active-path" d="m375.548,122.982c0.031,-0.018 0.062,-0.036 0.093,-0.054l27.704,-16c3.841,-2.183 5.185,-7.067 3.002,-10.908c-2.183,-3.841 -7.067,-5.185 -10.908,-3.002c-0.031,0.018 -0.062,0.036 -0.093,0.054l-27.704,16c-3.841,2.183 -5.185,7.067 -3.002,10.908c2.183,3.842 7.067,5.186 10.908,3.002z"/>
  <path id="svg_9" fill="#ffffff" class="active-path" d="m384.002,192c0,4.418 3.582,8 8,8l32,0c4.418,0 8,-3.582 8,-8s-3.582,-8 -8,-8l-32,0c-4.419,0 -8,3.582 -8,8z"/>
  <path id="svg_10" fill="#ffffff" class="active-path" d="m403.437,277.125c-0.03,-0.018 -0.061,-0.035 -0.092,-0.053l-27.704,-16c-3.812,-2.234 -8.713,-0.956 -10.947,2.856c-2.234,3.812 -0.956,8.713 2.856,10.947c0.03,0.018 0.061,0.035 0.092,0.053l27.704,16c3.812,2.234 8.713,0.956 10.947,-2.856c2.234,-3.811 0.956,-8.712 -2.856,-10.947z"/>
  <path id="svg_11" fill="#ffffff" class="active-path" d="m108.354,260c-1.404,0 -2.784,0.37 -4,1.072l-27.704,16c-3.841,2.184 -5.184,7.068 -3,10.909s7.068,5.184 10.909,3c0.031,-0.017 0.061,-0.035 0.092,-0.053l27.704,-16c3.826,-2.209 5.137,-7.102 2.928,-10.928c-1.431,-2.475 -4.071,-4 -6.929,-4z"/>
  <path id="svg_12" fill="#ffffff" class="active-path" d="m56.002,200l32,0c4.418,0 8,-3.582 8,-8s-3.582,-8 -8,-8l-32,0c-4.418,0 -8,3.582 -8,8s3.581,8 8,8z"/>
  <path id="svg_13" fill="#ffffff" class="active-path" d="m76.564,106.875c0.031,0.018 0.062,0.036 0.093,0.054l27.704,16c3.811,2.235 8.713,0.957 10.948,-2.854c2.235,-3.811 0.957,-8.713 -2.854,-10.948c-0.031,-0.018 -0.062,-0.036 -0.093,-0.054l-27.704,-16c-3.811,-2.235 -8.713,-0.957 -10.948,2.854c-2.235,3.811 -0.957,8.713 2.854,10.948z"/>
  <path stroke="#f9f9f9" id="svg_14" fill="#ffffff" class="active-path" d="m141.074,36.656l16,27.704c2.183,3.841 7.067,5.185 10.908,3.002c3.841,-2.183 5.185,-7.067 3.002,-10.908c-0.018,-0.031 -0.036,-0.062 -0.054,-0.093l-16,-27.704c-2.183,-3.841 -7.067,-5.185 -10.908,-3.002c-3.841,2.183 -5.185,7.067 -3.002,10.908c0.018,0.031 0.036,0.062 0.054,0.093z"/>
 </g>
</svg>