<svg xmlns="http://www.w3.org/2000/svg" xmlns:xlink="http://www.w3.org/1999/xlink" width="605" height="396" viewBox="0 0 605 396">
  <defs>
    <clipPath id="clip-path">
      <rect width="282" height="147" fill="none"/>
    </clipPath>
    <clipPath id="clip-path-2">
      <rect width="277" height="19" fill="none"/>
    </clipPath>
  </defs>
  <g id="Group_1393" data-name="Group 1393" transform="translate(-267 -1116)">
    <rect id="Rectangle_752" data-name="Rectangle 752" width="605" height="396" rx="3" transform="translate(267 1116)" fill="#fff"/>
    <text id="Leaves_Attendance" data-name="Leaves &amp; Attendance" transform="translate(317 1148)" fill="#43425d" font-size="16" font-family="SourceSansPro-Regular, Source Sans Pro"><tspan x="0" y="0">Leaves &amp; Attendance</tspan></text>
    <g id="today" transform="translate(-8 930)">
      <g id="Ellipse_45" data-name="Ellipse 45" transform="translate(383 346)" fill="rgba(59,134,255,0.3)" stroke="#109fd5" stroke-width="1">
        <circle cx="18" cy="18" r="18" stroke="none"/>
        <circle cx="18" cy="18" r="17.5" fill="none"/>
      </g>
      <text id="_2" data-name="2" transform="translate(405 369)" fill="#3b86ff" font-size="15" font-family="SourceSansPro-Regular, Source Sans Pro"><tspan x="-3.727" y="0">2</tspan></text>
    </g>
    <g id="date" transform="translate(292 1284)" clip-path="url(#clip-path)">
      <g transform="translate(-357 -336)">
        <text id="_-" data-name="-" transform="translate(366 351)" fill="#43425d" font-size="14" font-family="OpenSans, Open Sans"><tspan x="-2.252" y="0">-</tspan></text>
      </g>
      <g transform="translate(-314 -336)">
        <text id="_1" data-name="1" transform="translate(366 351)" fill="#43425d" font-size="14" font-family="OpenSans, Open Sans"><tspan x="-4.002" y="0">1</tspan></text>
      </g>
      <g transform="translate(-271 -336)">
        <text id="_2-2" data-name="2" transform="translate(366 351)" fill="#43425d" font-size="14" font-family="OpenSans, Open Sans"><tspan x="-4.002" y="0">2</tspan></text>
      </g>
      <g transform="translate(-228 -336)">
        <text id="_3" data-name="3" transform="translate(366 351)" fill="#43425d" font-size="14" font-family="OpenSans, Open Sans"><tspan x="-4.002" y="0">3</tspan></text>
      </g>
      <g transform="translate(-185 -336)">
        <text id="_4" data-name="4" transform="translate(366 351)" fill="#43425d" font-size="14" font-family="OpenSans, Open Sans"><tspan x="-4.002" y="0">4</tspan></text>
      </g>
      <g transform="translate(-142 -336)">
        <text id="_5" data-name="5" transform="translate(366 351)" fill="#43425d" font-size="14" font-family="OpenSans, Open Sans"><tspan x="-4.002" y="0">5</tspan></text>
      </g>
      <g transform="translate(-99 -336)">
        <text id="_6" data-name="6" transform="translate(366 351)" fill="#43425d" font-size="14" font-family="OpenSans, Open Sans"><tspan x="-4.002" y="0">6</tspan></text>
      </g>
      <g transform="translate(-357 -304)">
        <text id="_7" data-name="7" transform="translate(366 351)" fill="#43425d" font-size="14" font-family="OpenSans, Open Sans"><tspan x="-4.002" y="0">7</tspan></text>
      </g>
      <g transform="translate(-314 -304)">
        <text id="_8" data-name="8" transform="translate(366 351)" fill="#43425d" font-size="14" font-family="OpenSans, Open Sans"><tspan x="-4.002" y="0">8</tspan></text>
      </g>
      <g transform="translate(-271 -304)">
        <text id="_9" data-name="9" transform="translate(366 351)" fill="#43425d" font-size="14" font-family="OpenSans, Open Sans"><tspan x="-4.002" y="0">9</tspan></text>
      </g>
      <g transform="translate(-228 -304)">
        <text id="_10" data-name="10" transform="translate(366 351)" fill="#43425d" font-size="14" font-family="OpenSans, Open Sans"><tspan x="-8.005" y="0">10</tspan></text>
      </g>
      <g transform="translate(-185 -304)">
        <text id="_11" data-name="11" transform="translate(366 351)" fill="#43425d" font-size="14" font-family="OpenSans, Open Sans"><tspan x="-8.005" y="0">11</tspan></text>
      </g>
      <g transform="translate(-142 -304)">
        <text id="_12" data-name="12" transform="translate(366 351)" fill="#43425d" font-size="14" font-family="OpenSans, Open Sans"><tspan x="-8.005" y="0">12</tspan></text>
      </g>
      <g transform="translate(-99 -304)">
        <text id="_13" data-name="13" transform="translate(366 351)" fill="#43425d" font-size="14" font-family="OpenSans, Open Sans"><tspan x="-8.005" y="0">13</tspan></text>
      </g>
      <g transform="translate(-357 -272)">
        <text id="_14" data-name="14" transform="translate(366 351)" fill="#43425d" font-size="14" font-family="OpenSans, Open Sans"><tspan x="-8.005" y="0">14</tspan></text>
      </g>
      <g transform="translate(-314 -272)">
        <text id="_15" data-name="15" transform="translate(366 351)" fill="#43425d" font-size="14" font-family="OpenSans, Open Sans"><tspan x="-8.005" y="0">15</tspan></text>
      </g>
      <g transform="translate(-271 -272)">
        <text id="_16" data-name="16" transform="translate(366 351)" fill="#43425d" font-size="14" font-family="OpenSans, Open Sans"><tspan x="-8.005" y="0">16</tspan></text>
      </g>
      <g transform="translate(-228 -272)">
        <text id="_17" data-name="17" transform="translate(366 351)" fill="#43425d" font-size="14" font-family="OpenSans, Open Sans"><tspan x="-8.005" y="0">17</tspan></text>
      </g>
      <g transform="translate(-185 -272)">
        <text id="_18" data-name="18" transform="translate(366 351)" fill="#43425d" font-size="14" font-family="OpenSans, Open Sans"><tspan x="-8.005" y="0">18</tspan></text>
      </g>
      <g transform="translate(-142 -272)">
        <text id="_19" data-name="19" transform="translate(366 351)" fill="#43425d" font-size="14" font-family="OpenSans, Open Sans"><tspan x="-8.005" y="0">19</tspan></text>
      </g>
      <g transform="translate(-99 -272)">
        <text id="_20" data-name="20" transform="translate(366 351)" fill="#43425d" font-size="14" font-family="OpenSans, Open Sans"><tspan x="-8.005" y="0">20</tspan></text>
      </g>
      <g transform="translate(-357 -240)">
        <text id="_21" data-name="21" transform="translate(366 351)" fill="#43425d" font-size="14" font-family="OpenSans, Open Sans"><tspan x="-8.005" y="0">21</tspan></text>
      </g>
      <g transform="translate(-314 -240)">
        <text id="_22" data-name="22" transform="translate(366 351)" fill="#43425d" font-size="14" font-family="OpenSans, Open Sans"><tspan x="-8.005" y="0">22</tspan></text>
      </g>
      <g transform="translate(-271 -240)">
        <text id="_23" data-name="23" transform="translate(366 351)" fill="#43425d" font-size="14" font-family="OpenSans, Open Sans"><tspan x="-8.005" y="0">23</tspan></text>
      </g>
      <g transform="translate(-228 -240)">
        <text id="_24" data-name="24" transform="translate(366 351)" fill="#43425d" font-size="14" font-family="OpenSans, Open Sans"><tspan x="-8.005" y="0">24</tspan></text>
      </g>
      <g transform="translate(-185 -240)">
        <text id="_25" data-name="25" transform="translate(366 351)" fill="#43425d" font-size="14" font-family="OpenSans, Open Sans"><tspan x="-8.005" y="0">25</tspan></text>
      </g>
      <g transform="translate(-142 -240)">
        <text id="_26" data-name="26" transform="translate(366 351)" fill="#43425d" font-size="14" font-family="OpenSans, Open Sans"><tspan x="-8.005" y="0">26</tspan></text>
      </g>
      <g transform="translate(-99 -240)">
        <text id="_27" data-name="27" transform="translate(366 351)" fill="#43425d" font-size="14" font-family="OpenSans, Open Sans"><tspan x="-8.005" y="0">27</tspan></text>
      </g>
      <g transform="translate(-357 -208)">
        <text id="_28" data-name="28" transform="translate(366 351)" fill="#43425d" font-size="14" font-family="OpenSans, Open Sans"><tspan x="-8.005" y="0">28</tspan></text>
      </g>
      <g transform="translate(-314 -208)">
        <text id="_29" data-name="29" transform="translate(366 351)" fill="#43425d" font-size="14" font-family="OpenSans, Open Sans"><tspan x="-8.005" y="0">29</tspan></text>
      </g>
      <g transform="translate(-271 -208)">
        <text id="_30" data-name="30" transform="translate(366 351)" fill="#43425d" font-size="14" font-family="OpenSans, Open Sans"><tspan x="-8.005" y="0">30</tspan></text>
      </g>
      <g transform="translate(-228 -208)">
        <text id="_31" data-name="31" transform="translate(366 351)" fill="#43425d" font-size="14" font-family="OpenSans, Open Sans"><tspan x="-8.005" y="0">31</tspan></text>
      </g>
      <g transform="translate(-185 -208)">
        <text id="_--2" data-name="-" transform="translate(366 351)" fill="#43425d" font-size="14" font-family="OpenSans, Open Sans"><tspan x="-2.252" y="0">-</tspan></text>
      </g>
      <g transform="translate(-142 -208)">
        <text id="_--3" data-name="-" transform="translate(366 351)" fill="#43425d" font-size="14" font-family="OpenSans, Open Sans"><tspan x="-2.252" y="0">-</tspan></text>
      </g>
      <g transform="translate(-99 -208)">
        <text id="_--4" data-name="-" transform="translate(366 351)" fill="#43425d" font-size="14" font-family="OpenSans, Open Sans"><tspan x="-2.252" y="0">-</tspan></text>
      </g>
    </g>
    <path id="Path_2119" data-name="Path 2119" d="M119.265,2938.743h296.5" transform="translate(163.235 -1674)" fill="none" stroke="#e9e9f0" stroke-width="1"/>
    <path id="Path_2120" data-name="Path 2120" d="M119.265,2938.743H689.622" transform="translate(163.235 -1467)" fill="none" stroke="#e9e9f0" stroke-width="1"/>
    <g id="days" transform="translate(294 1234)" clip-path="url(#clip-path-2)">
      <g transform="translate(-306 -286)">
        <text id="Su" transform="translate(314 301)" fill="#a3a6b4" font-size="14" font-family="OpenSans, Open Sans"><tspan x="-8.138" y="0">Su</tspan></text>
      </g>
      <g transform="translate(-263 -286)">
        <text id="Mo" transform="translate(314 301)" fill="#a3a6b4" font-size="14" font-family="OpenSans, Open Sans"><tspan x="-10.548" y="0">Mo</tspan></text>
      </g>
      <g transform="translate(-220 -286)">
        <text id="Tu" transform="translate(314 301)" fill="#a3a6b4" font-size="14" font-family="OpenSans, Open Sans"><tspan x="-8.169" y="0">Tu</tspan></text>
      </g>
      <g transform="translate(-177 -286)">
        <text id="We" transform="translate(314 301)" fill="#a3a6b4" font-size="14" font-family="OpenSans, Open Sans"><tspan x="-10.408" y="0">We</tspan></text>
      </g>
      <g transform="translate(-134 -286)">
        <text id="Th" transform="translate(314 301)" fill="#a3a6b4" font-size="14" font-family="OpenSans, Open Sans"><tspan x="-8.169" y="0">Th</tspan></text>
      </g>
      <g transform="translate(-91 -286)">
        <text id="Fr" transform="translate(314 301)" fill="#a3a6b4" font-size="14" font-family="OpenSans, Open Sans"><tspan x="-6.47" y="0">Fr</tspan></text>
      </g>
      <g transform="translate(-48 -286)">
        <text id="Sa" transform="translate(314 301)" fill="#a3a6b4" font-size="14" font-family="OpenSans, Open Sans"><tspan x="-7.735" y="0">Sa</tspan></text>
      </g>
    </g>
    <rect id="Rectangle_753" data-name="Rectangle 753" width="605" height="39" transform="translate(267 1170)" fill="#fafafa"/>
    <g id="previous" transform="translate(126.5 -999)">
      <path id="Path_294" data-name="Path 294" d="M1811.182,4362.342l-7.567,6.731,7.567,6.2" transform="translate(-1550.116 -2181.842)" fill="none" stroke="#808495" stroke-width="2"/>
    </g>
    <text id="January_2018" data-name="January 2018" transform="translate(570 1194)" fill="#43425d" font-size="15" font-family="SourceSansPro-Regular, Source Sans Pro"><tspan x="-42.045" y="0">January 2018</tspan></text>
    <g id="next" transform="translate(497.933 -999)">
      <path id="Path_294-2" data-name="Path 294" d="M1803.616,4362.342l7.57,6.731-7.57,6.2" transform="translate(-1549.549 -2181.842)" fill="none" stroke="#808495" stroke-width="2"/>
    </g>
    <line id="Line_105" data-name="Line 105" y2="246" transform="translate(603 1219)" fill="none" stroke="#707070" stroke-width="1" opacity="0.16"/>
    <g id="Group_1045" data-name="Group 1045" transform="translate(627 1231)">
      <circle id="Ellipse_61" data-name="Ellipse 61" cx="15" cy="15" r="15" transform="translate(184)" fill="#52c6d9"/>
      <text id="My_Pending_Leaves" data-name="My Pending Leaves" transform="translate(0 20)" fill="#4d4f5c" font-size="14" font-family="OpenSans, Open Sans"><tspan x="0" y="0">My Pending Leaves</tspan></text>
      <text id="_12-2" data-name="12" transform="translate(190 20)" fill="#fff" font-size="16" font-family="SourceSansPro-Regular, Source Sans Pro"><tspan x="0" y="0">12</tspan></text>
    </g>
    <g id="Group_1046" data-name="Group 1046" transform="translate(627 1298.589)">
      <circle id="Ellipse_62" data-name="Ellipse 62" cx="15" cy="15" r="15" transform="translate(184 0.411)" fill="#fea984"/>
      <text id="Applied_Leaves" data-name="Applied Leaves" transform="translate(0 20.411)" fill="#4d4f5c" font-size="14" font-family="OpenSans, Open Sans"><tspan x="0" y="0">Applied Leaves</tspan></text>
      <text id="_1-2" data-name="1" transform="translate(194 20.411)" fill="#fff" font-size="16" font-family="SourceSansPro-Regular, Source Sans Pro"><tspan x="0" y="0">1</tspan></text>
    </g>
    <g id="Group_1047" data-name="Group 1047" transform="translate(627 1367.271)">
      <circle id="Ellipse_63" data-name="Ellipse 63" cx="15" cy="15" r="15" transform="translate(184 -0.271)" fill="#e05252"/>
      <text id="Pending_for_Approvals" data-name="Pending for Approvals" transform="translate(0 19.729)" fill="#4d4f5c" font-size="14" font-family="OpenSans, Open Sans"><tspan x="0" y="0">Pending for Approvals</tspan></text>
      <text id="_1-3" data-name="1" transform="translate(194 19.729)" fill="#fff" font-size="16" font-family="SourceSansPro-Regular, Source Sans Pro"><tspan x="0" y="0">1</tspan></text>
    </g>
    <g id="Group_1048" data-name="Group 1048" transform="translate(0 782)">
      <g id="Group_984" data-name="Group 984" transform="translate(627 653)">
        <path id="Path_2111" data-name="Path 2111" d="M15,0A15,15,0,1,1,0,15,15,15,0,0,1,15,0Z" transform="translate(184)" fill="#b28ffc"/>
        <text id="Applied_for_OD" data-name="Applied for OD" transform="translate(0 20)" fill="#4d4f5c" font-size="14" font-family="OpenSans, Open Sans"><tspan x="0" y="0">Applied for OD</tspan></text>
        <text id="_1-4" data-name="1" transform="translate(194 20)" fill="#fff" font-size="16" font-family="SourceSansPro-Regular, Source Sans Pro"><tspan x="0" y="0">1</tspan></text>
      </g>
    </g>
    <line id="Line_104" data-name="Line 104" x2="91.549" transform="translate(404.297 1349.101)" fill="none" stroke="#f5f5f5" stroke-width="0.7"/>
    <line id="Line_106" data-name="Line 106" x2="212.5" transform="translate(627 1281.5)" fill="none" stroke="#cacaca" stroke-width="1" stroke-dasharray="7"/>
    <line id="Line_107" data-name="Line 107" x2="212.5" transform="translate(627 1349.5)" fill="none" stroke="#cacaca" stroke-width="1" stroke-dasharray="7 7"/>
    <line id="Line_108" data-name="Line 108" x2="212.5" transform="translate(627 1417.5)" fill="none" stroke="#cacaca" stroke-width="1" stroke-dasharray="7 7"/>
    <g id="event_1_" data-name="event (1)" transform="translate(283 1131)">
      <g id="Group_971" data-name="Group 971">
        <g id="Group_970" data-name="Group 970">
          <path id="Path_1480" data-name="Path 1480" d="M22.52,14.6V4.094a2.05,2.05,0,0,0-2.047-2.047H17.4V.512a.512.512,0,0,0-1.024,0V2.047H7.165V.512a.512.512,0,1,0-1.024,0V2.047H2.047A2.05,2.05,0,0,0,0,4.094V20.472A2.05,2.05,0,0,0,2.047,22.52H14.6A5.627,5.627,0,1,0,22.52,14.6Zm-21.5-10.5A1.025,1.025,0,0,1,2.047,3.071H6.142V4.094A1.024,1.024,0,1,0,7.165,5.118V3.071h9.213V4.094A1.024,1.024,0,1,0,17.4,5.118V3.071h3.071A1.025,1.025,0,0,1,21.5,4.094V7.165H1.024ZM2.047,21.5a1.025,1.025,0,0,1-1.024-1.024V8.189H21.5v5.74A5.62,5.62,0,0,0,13.929,21.5Zm16.89,2.047a4.606,4.606,0,1,1,4.606-4.606A4.611,4.611,0,0,1,18.937,23.543Z" fill="#ee4380"/>
          <path id="Path_1481" data-name="Path 1481" d="M385.024,323.371v-2.859a.512.512,0,1,0-1.024,0v3.071a.511.511,0,0,0,.15.362l1.535,1.535a.512.512,0,0,0,.724-.724Z" transform="translate(-365.575 -304.646)" fill="#ee4380"/>
        </g>
      </g>
    </g>
    <text id="Show_More_Link" data-name="Show More Link" transform="translate(771 1500)" fill="#109fd5" font-size="12" font-family="SourceSansPro-Regular, Source Sans Pro"><tspan x="0" y="0">View Full Report</tspan></text>
    <text id="_2-3" data-name="2" transform="translate(387 1299)" fill="#3b86ff" font-size="14" font-family="OpenSans, Open Sans"><tspan x="-4.002" y="0">2</tspan></text>
    <path id="Path_2122" data-name="Path 2122" d="M2,5v9H14V5ZM13,2h2a.945.945,0,0,1,1,1V15a.945.945,0,0,1-1,1H1a.945.945,0,0,1-1-1V3A.945.945,0,0,1,1,2H3V1A.945.945,0,0,1,4,0,.945.945,0,0,1,5,1V2h6V1a1,1,0,0,1,2,0ZM12,12H10V10h2ZM9,12H7V10H9Zm3-3H10V7h2ZM9,9H7V7H9ZM6,12H4V10H6Z" transform="translate(841 1132.495)" fill="#a5a4bf" fill-rule="evenodd"/>
  </g>
</svg>
