<svg xmlns="http://www.w3.org/2000/svg" width="622" height="132" viewBox="0 0 622 132">
  <g id="Group_31" data-name="Group 31" transform="translate(-110 -125)">
    <g id="Group_1" data-name="Group 1" transform="translate(110.001 125.073)">
      <path id="Path_112" data-name="Path 112" d="M192.385,66.04c-.072-.57-.062-7.094,0-7.529a1.112,1.112,0,0,1,.321,0,30.326,30.326,0,0,0,3.739.528,54.96,54.96,0,0,0,7.032.2,16.685,16.685,0,0,0,5.043-.87,9.135,9.135,0,0,0,1.377-.611A6.526,6.526,0,0,0,213,54.079a11.161,11.161,0,0,0,.642-3.449V47.057a1.034,1.034,0,0,0,0-.2,2.188,2.188,0,0,0-.228.135A11.072,11.072,0,0,1,208.1,49.47a17.71,17.71,0,0,1-4.961.238,17.014,17.014,0,0,1-5.789-1.46,14.22,14.22,0,0,1-7.819-8.989,17.119,17.119,0,0,1-.756-4.577,23.6,23.6,0,0,1,.114-3.728,19.321,19.321,0,0,1,3.252-9.072,15.367,15.367,0,0,1,9.517-6.3,18.371,18.371,0,0,1,5.478-.362,21.454,21.454,0,0,1,4.578.8,15.892,15.892,0,0,1,6.866,3.946,15.472,15.472,0,0,1,3.863,6.431,18.633,18.633,0,0,1,.88,4.94c0,.88.072,1.761.072,2.651V49.522a26.607,26.607,0,0,1-.3,4.267,14.856,14.856,0,0,1-2.744,6.742,13,13,0,0,1-3.987,3.449,18.973,18.973,0,0,1-4.961,1.957,30.336,30.336,0,0,1-4.319.735,44.486,44.486,0,0,1-5.51.2c-.87,0-1.729,0-2.6-.072s-1.616-.1-2.434-.176l-2.258-.249A15.277,15.277,0,0,1,192.385,66.04Zm21.748-33.326a18.7,18.7,0,0,0-.3-3.459,9.688,9.688,0,0,0-.984-2.8,6.785,6.785,0,0,0-4.194-3.345,9.058,9.058,0,0,0-4.557-.072,6.7,6.7,0,0,0-2.9,1.491,7.493,7.493,0,0,0-2.206,3.418,13.818,13.818,0,0,0-.58,3.179,17.379,17.379,0,0,0,.249,4.64A8.769,8.769,0,0,0,199.7,38.7a6.752,6.752,0,0,0,4.287,3.231,9.155,9.155,0,0,0,3.966.114,6.821,6.821,0,0,0,3.107-1.388,7.4,7.4,0,0,0,2.434-3.635,14.623,14.623,0,0,0,.684-4.308Z" transform="translate(6.723 0.543)" fill="#100d1e"/>
      <path id="Path_113" data-name="Path 113" d="M264.64,50.257V27.949a14.669,14.669,0,0,1,.466-3.915,9.7,9.7,0,0,1,3.946-5.52,16.35,16.35,0,0,1,4.577-2.144,25.71,25.71,0,0,1,4.236-.891,38.356,38.356,0,0,1,5.665-.29,32.236,32.236,0,0,1,6.97.849,18.393,18.393,0,0,1,5.282,2.164,10.132,10.132,0,0,1,3.449,3.521,11.227,11.227,0,0,1,1.3,4.039,17.8,17.8,0,0,1,.114,2.216V50.2l-.321.062H290.2a2.092,2.092,0,0,1-.663,0V28.84a9.738,9.738,0,0,0-.217-2.258,1.556,1.556,0,0,0-.124-.466,4.206,4.206,0,0,0-2.651-2.869,8.562,8.562,0,0,0-2.268-.507c-.684-.052-1.367-.1-2.071-.093a11.283,11.283,0,0,0-2.993.4l-.311.1a4.289,4.289,0,0,0-3.034,3.355,8.72,8.72,0,0,0-.238,1.874v21.81a.944.944,0,0,1-.549.072H264.64Z" transform="translate(9.427 0.543)" fill="#100d1e"/>
      <path id="Path_114" data-name="Path 114" d="M262.007,33.917l-.093.052H236.779a.42.42,0,0,0,0,.124,8.881,8.881,0,0,0,1.8,5.064,7.845,7.845,0,0,0,2.962,2.227,12.443,12.443,0,0,0,3.107.9,42.145,42.145,0,0,0,8.285.373c1.15,0,2.309-.093,3.459-.166.828-.062,1.647-.166,2.475-.259a25,25,0,0,0,2.765-.476.28.28,0,0,1,.124,0,2.118,2.118,0,0,1,0,.259v7.664c-.2.052-.362.114-.528.145-.849.145-1.709.3-2.558.414s-1.616.176-2.423.228c-2.527.176-5.054.269-7.581.238a40.862,40.862,0,0,1-4.64-.311,28.383,28.383,0,0,1-4.919-1.036,17.723,17.723,0,0,1-5.893-3,14.072,14.072,0,0,1-4.484-6.214,17.069,17.069,0,0,1-1.036-4.36c-.083-.735-.155-1.471-.176-2.216A16.922,16.922,0,0,1,233.6,19.584a18.038,18.038,0,0,1,8.109-4.018,20.316,20.316,0,0,1,5.975-.394,18.3,18.3,0,0,1,5.064,1.036,13.465,13.465,0,0,1,8.72,9.735,17.854,17.854,0,0,1,.539,4.142V32.85A4.576,4.576,0,0,1,262.007,33.917ZM237.618,27.7a1.528,1.528,0,0,0,.6.052h13.794a2.618,2.618,0,0,0,.321-.072,2.751,2.751,0,0,0-.072-.777,5.272,5.272,0,0,0-3.77-4.484,10.03,10.03,0,0,0-5.074,0,8.172,8.172,0,0,0-5.758,5.1c-.021.021-.021.093-.041.176Z" transform="translate(8.104 0.541)" fill="#100d1e"/>
      <path id="Path_115" data-name="Path 115" d="M185.638,32.422a18.8,18.8,0,0,1-2.444,9.932,16.572,16.572,0,0,1-9.88,7.674,19.481,19.481,0,0,1-3.6.684,21.406,21.406,0,0,1-2.7.072,17.808,17.808,0,0,1-10.056-3.345,16.692,16.692,0,0,1-6.141-8.565,18.134,18.134,0,0,1-.87-5.178,19.462,19.462,0,0,1,.549-5.416,16.745,16.745,0,0,1,11.785-12.3,19.072,19.072,0,0,1,3.821-.684,19.738,19.738,0,0,1,3.832,0,17.223,17.223,0,0,1,10.864,5.178,17.047,17.047,0,0,1,4.35,8.036A19.544,19.544,0,0,1,185.638,32.422Zm-26.035.435a20.281,20.281,0,0,0,.3,3.531,10.277,10.277,0,0,0,1.036,2.91,7.135,7.135,0,0,0,5.478,3.8,9.461,9.461,0,0,0,2.537,0,7.25,7.25,0,0,0,6.266-5,13.767,13.767,0,0,0,.746-4.029,18.744,18.744,0,0,0-.2-4.142,10.874,10.874,0,0,0-.86-2.9,7.1,7.1,0,0,0-4.65-4,9.24,9.24,0,0,0-4.143-.166,7.066,7.066,0,0,0-5.251,3.863,9.481,9.481,0,0,0-.735,1.916,17.214,17.214,0,0,0-.528,4.215Z" transform="translate(5.341 0.544)" fill="#100d1e"/>
      <path id="Path_116" data-name="Path 116" d="M103.287,49.915H93.832a2.459,2.459,0,0,1-.062-.3V27.794A17.283,17.283,0,0,1,94,24.781a9.764,9.764,0,0,1,4.474-6.918,15.355,15.355,0,0,1,4.867-2.019,25.377,25.377,0,0,1,3.956-.58,29.694,29.694,0,0,1,4.7,0,19.564,19.564,0,0,1,6.587,1.595,15.442,15.442,0,0,1,1.937,1.036,9.6,9.6,0,0,1,4.018,5.52,15.079,15.079,0,0,1,.528,3.531V49.76a.714.714,0,0,1-.549.1h-9.1a1.576,1.576,0,0,1,0-.28V28.84a12.1,12.1,0,0,0-.145-2.206,6.58,6.58,0,0,0-.487-1.605A3.74,3.74,0,0,0,113,23.217a6.6,6.6,0,0,0-2.392-.632,13.645,13.645,0,0,0-2.434,0,6.826,6.826,0,0,0-2.247.549,3.779,3.779,0,0,0-2,2.071,5.625,5.625,0,0,0-.456,1.667,16.106,16.106,0,0,0-.124,1.729v20.63A4.922,4.922,0,0,0,103.287,49.915Z" transform="translate(3.34 0.543)" fill="#100d1e"/>
      <path id="Path_117" data-name="Path 117" d="M131.542,24.037h-4.629a2.139,2.139,0,0,1-.062-.28V16.829a.779.779,0,0,1,0-.155c.135-.135.3-.083.456-.083h4.142a1.2,1.2,0,0,0,.073-.621c0-1.191,0-2.382.052-3.563a14.186,14.186,0,0,1,1.45-5.623,11.394,11.394,0,0,1,6.152-5.644A14.978,14.978,0,0,1,143.254.1a20.8,20.8,0,0,1,3.407-.072,15.238,15.238,0,0,1,3.469.518l.466.145a1.734,1.734,0,0,1,.217.124V8.648a1.441,1.441,0,0,1-.052.238l-.321-.072a12.415,12.415,0,0,0-2.206-.528,10.955,10.955,0,0,0-3.024-.052,4.215,4.215,0,0,0-2.672,1.5,5.45,5.45,0,0,0-1.232,2.786,13.3,13.3,0,0,0-.1,1.45v2.548a1.171,1.171,0,0,0,.59.062h5.665c0,.155.052.29.052.425v6.908c-.186.166-.373.1-.549.1h-5.7a.6.6,0,0,1-.062.331c-.062.1,0,.362,0,.539V50.373a1.034,1.034,0,0,1-.611.083h-9.01a2.112,2.112,0,0,1-.052-.331V24.814C131.552,24.576,131.542,24.348,131.542,24.037Z" transform="translate(4.519 0.002)" fill="#100d1e"/>
      <path id="Path_118" data-name="Path 118" d="M87.806,50.445H77.74a.718.718,0,0,1,0-.176V1.067a.837.837,0,0,1,0-.176h.249c1.284-.052,9.321,0,9.766,0a2.417,2.417,0,0,1,0,.3v48.5A2.429,2.429,0,0,1,87.806,50.445Z" transform="translate(2.769 0.034)" fill="#100d1e"/>
      <path id="Path_119" data-name="Path 119" d="M289.591,57.206c.249.072.445.114.621.176a2.713,2.713,0,0,1,1.036.7,2.074,2.074,0,0,1,.559,1.263,2.641,2.641,0,0,1-1.46,2.682,4.288,4.288,0,0,1-2.071.507h-4.008a.937.937,0,0,1-.186,0,.055.055,0,0,1-.052-.062.087.087,0,0,1,0-.052V52.795a.471.471,0,0,1,.052-.135h4.08a4.527,4.527,0,0,1,1.74.321,2.986,2.986,0,0,1,.756.414,1.988,1.988,0,0,1,.369,2.788l-.006.008a2.886,2.886,0,0,1-1.1.86Zm-3.107,1.1a13.82,13.82,0,0,0-.073,2.351,1.778,1.778,0,0,0,.073.217h1.636a1.759,1.759,0,0,0,.8-.311,1.221,1.221,0,0,0-.124-2.009,1.878,1.878,0,0,0-.394-.166,7.945,7.945,0,0,0-1.926-.083Zm-.052-1.7h1.243a1.688,1.688,0,0,0,.766-.238,1.12,1.12,0,0,0,.528-1.108.942.942,0,0,0-.766-.87,1.142,1.142,0,0,0-.311-.062c-.383,0-.756-.052-1.139-.062a1.869,1.869,0,0,0-.321.052Z" transform="translate(10.118 1.878)" fill="#100d1e"/>
      <path id="Path_120" data-name="Path 120" d="M282.708,62.543h-2.454c-.311-.694-.466-1.44-.766-2.144a4.912,4.912,0,0,0-1.232-.062h-1.191a6.527,6.527,0,0,0-1.264.052c-.249.7-.487,1.419-.725,2.071a14.839,14.839,0,0,1-2.465,0,.466.466,0,0,1,.083-.445l1.947-5.1,1.46-3.842c.062-.166.135-.331.207-.5h2.8q1.813,4.858,3.6,9.724C284.5,67.172,282.708,62.47,282.708,62.543Zm-3.79-4-1.294-3.966c-.394,1.367-.891,2.62-1.263,3.915a13.115,13.115,0,0,0,2.558.052Z" transform="translate(9.71 1.876)" fill="#100d1e"/>
      <path id="Path_121" data-name="Path 121" d="M293.153,62.194V60.123c.186-.052.279.083.393.155a4.7,4.7,0,0,0,2.62.725,2.538,2.538,0,0,0,1.036-.238.819.819,0,0,0,.238-1.419,3.131,3.131,0,0,0-.756-.507c-.383-.2-.787-.352-1.191-.518a5.639,5.639,0,0,1-1.233-.663,2.631,2.631,0,0,1-1.118-2.838,2.349,2.349,0,0,1,1.036-1.533,4.141,4.141,0,0,1,1.905-.715,8.625,8.625,0,0,1,2.962.093,2.758,2.758,0,0,1,.652.176,6,6,0,0,1,0,2.071l-.342-.145A4.856,4.856,0,0,0,297,54.323a2.24,2.24,0,0,0-.932.259.807.807,0,0,0-.413,1.065.82.82,0,0,0,.258.323,2.91,2.91,0,0,0,.632.414c.321.155.652.29,1.036.435a9.246,9.246,0,0,1,1.118.539,3.517,3.517,0,0,1,.59.383,2.545,2.545,0,0,1,1.036,2.009,2.6,2.6,0,0,1-1.533,2.579,4.267,4.267,0,0,1-1.5.414,8.708,8.708,0,0,1-3.273-.186A6.206,6.206,0,0,0,293.153,62.194Z" transform="translate(10.44 1.872)" fill="#100d1e"/>
      <path id="Path_122" data-name="Path 122" d="M272.1,60.789V62.55a1.839,1.839,0,0,1-.28.052h-5.831a.815.815,0,0,1-.073-.539v-9.31a3.894,3.894,0,0,1,1.139-.062h1.118a.891.891,0,0,1,.093.6v7.467a4.218,4.218,0,0,0,.943,0h2.869Z" transform="translate(9.472 1.879)" fill="#100d1e"/>
      <path id="Path_123" data-name="Path 123" d="M36.9,53.089s13.266-14.5,14.5-32.912-6.949-14.5-6.949-14.5-4.256.466-12.169,8.968H30.56S34.268,4.766,43.433.469c0,0,17.73-6.162,14.8,23.084,0,0-3.107,18.942-19.863,30.634Z" transform="translate(1.089 0)" fill="#ffc515"/>
      <path id="Path_124" data-name="Path 124" d="M52.392,20.118s-19.231-3.987-35.719,4.339S7.8,37.817,7.8,37.817s2.579,3.418,13.929,5.872l.911,1.46S12.282,47.023,3.863,41.327c0,0-14.354-12.086,12.272-24.513,0,0,17.875-7.011,36.485,1.408Z" transform="translate(0 0.504)" fill="#52c6d9"/>
      <path id="Path_125" data-name="Path 125" d="M16.931,23.93s6.079,18.641,21.5,28.863,16,1.036,16,1.036,1.688-3.935-1.823-15.017l.818-1.5S60.209,45.4,59.432,55.5c0,0-3.355,18.465-27.371,1.522,0,0-14.954-12.034-16.891-32.374Z" transform="translate(0.54 0.855)" fill="#ee4380"/>
    </g>
    <text id="Employee_Management_Systems" data-name="Employee Management Systems" transform="translate(110 248)" fill="#002d5a" font-size="40" font-family="Raleway-SemiBold, Raleway" font-weight="600"><tspan x="0" y="0">Employee Management Systems</tspan></text>
  </g>
</svg>
