<svg xmlns="http://www.w3.org/2000/svg" width="183.001" height="55.845" viewBox="0 0 183.001 55.845">
  <g id="Group_1392" data-name="Group 1392" transform="translate(-26.999 -26.155)">
    <g id="Group_109" data-name="Group 109" transform="translate(27 26.228)">
      <path id="Path_58" data-name="Path 58" d="M190.58,40.815c-.037-.287-.031-3.577,0-3.8a.56.56,0,0,1,.162,0,15.292,15.292,0,0,0,1.885.266,27.716,27.716,0,0,0,3.546.1,8.413,8.413,0,0,0,2.543-.439,4.606,4.606,0,0,0,.695-.308,3.291,3.291,0,0,0,1.567-1.854,5.628,5.628,0,0,0,.324-1.739v-1.8a.528.528,0,0,0,0-.1,1.1,1.1,0,0,0-.115.068A5.583,5.583,0,0,1,198.5,32.46a8.93,8.93,0,0,1-2.5.12,8.579,8.579,0,0,1-2.919-.736,7.171,7.171,0,0,1-3.943-4.533A8.633,8.633,0,0,1,188.757,25a11.9,11.9,0,0,1,.057-1.88,9.743,9.743,0,0,1,1.64-4.575,7.749,7.749,0,0,1,4.8-3.175,9.263,9.263,0,0,1,2.763-.183,10.818,10.818,0,0,1,2.308.4,8.013,8.013,0,0,1,3.462,1.99,7.8,7.8,0,0,1,1.948,3.243,9.4,9.4,0,0,1,.444,2.491c0,.444.037.888.037,1.337v7.833a13.418,13.418,0,0,1-.151,2.152,7.491,7.491,0,0,1-1.384,3.4,6.554,6.554,0,0,1-2.01,1.739,9.567,9.567,0,0,1-2.5.987,15.3,15.3,0,0,1-2.178.371,22.427,22.427,0,0,1-2.778.1c-.439,0-.872,0-1.311-.037s-.815-.052-1.227-.089l-1.138-.125A7.7,7.7,0,0,1,190.58,40.815Zm10.966-16.8a9.442,9.442,0,0,0-.151-1.744,4.888,4.888,0,0,0-.5-1.41,3.421,3.421,0,0,0-2.115-1.687,4.567,4.567,0,0,0-2.3-.037,3.38,3.38,0,0,0-1.462.752,3.779,3.779,0,0,0-1.112,1.723,6.971,6.971,0,0,0-.292,1.6,8.763,8.763,0,0,0,.125,2.34,4.422,4.422,0,0,0,.522,1.478,3.4,3.4,0,0,0,2.162,1.629,4.617,4.617,0,0,0,2,.057,3.44,3.44,0,0,0,1.567-.7,3.728,3.728,0,0,0,1.227-1.833,7.373,7.373,0,0,0,.345-2.172Z" transform="translate(-90.179 -7.277)" fill="#fff"/>
      <path id="Path_59" data-name="Path 59" d="M264.639,32.868V21.619a7.4,7.4,0,0,1,.235-1.974,4.893,4.893,0,0,1,1.99-2.783,8.246,8.246,0,0,1,2.308-1.081,12.965,12.965,0,0,1,2.136-.449,19.341,19.341,0,0,1,2.856-.146,16.256,16.256,0,0,1,3.514.428,9.275,9.275,0,0,1,2.663,1.091,5.109,5.109,0,0,1,1.739,1.776,5.661,5.661,0,0,1,.658,2.037,8.981,8.981,0,0,1,.057,1.118V32.841l-.162.031h-5.107a1.055,1.055,0,0,1-.334,0v-10.8a4.908,4.908,0,0,0-.11-1.138.786.786,0,0,0-.063-.235,2.121,2.121,0,0,0-1.337-1.447,4.316,4.316,0,0,0-1.144-.256c-.345-.026-.689-.052-1.044-.047a5.689,5.689,0,0,0-1.509.2l-.157.052a2.162,2.162,0,0,0-1.53,1.692,4.4,4.4,0,0,0-.12.945v11a.476.476,0,0,1-.277.037h-5.264Z" transform="translate(-126.441 -7.288)" fill="#fff"/>
      <path id="Path_60" data-name="Path 60" d="M244.9,24.59l-.047.026H232.176a.21.21,0,0,0,0,.063,4.479,4.479,0,0,0,.909,2.554,3.956,3.956,0,0,0,1.494,1.123,6.275,6.275,0,0,0,1.567.454,21.252,21.252,0,0,0,4.178.188c.58,0,1.165-.047,1.744-.084.418-.031.83-.084,1.248-.131a12.607,12.607,0,0,0,1.394-.24.141.141,0,0,1,.063,0,1.077,1.077,0,0,1,0,.131v3.864c-.1.026-.183.057-.266.073-.428.073-.862.151-1.29.209s-.815.089-1.222.115c-1.274.089-2.548.136-3.823.12a20.608,20.608,0,0,1-2.34-.157,14.313,14.313,0,0,1-2.481-.522,8.937,8.937,0,0,1-2.971-1.514,7.1,7.1,0,0,1-2.261-3.133,8.606,8.606,0,0,1-.522-2.2c-.042-.371-.078-.742-.089-1.118a8.533,8.533,0,0,1,3.065-7.05,9.1,9.1,0,0,1,4.089-2.026,10.244,10.244,0,0,1,3.013-.2,9.225,9.225,0,0,1,2.554.522,6.79,6.79,0,0,1,4.4,4.909,9,9,0,0,1,.272,2.089v1.394A2.3,2.3,0,0,1,244.9,24.59Zm-12.3-3.133a.771.771,0,0,0,.3.026h6.956a1.319,1.319,0,0,0,.162-.037,1.387,1.387,0,0,0-.037-.392,2.658,2.658,0,0,0-1.9-2.261,5.058,5.058,0,0,0-2.559,0,4.121,4.121,0,0,0-2.9,2.569c-.01.01-.01.047-.021.089Z" transform="translate(-108.693 -7.251)" fill="#fff"/>
      <path id="Path_61" data-name="Path 61" d="M167.934,23.884a9.478,9.478,0,0,1-1.232,5.008,8.356,8.356,0,0,1-4.982,3.87,9.824,9.824,0,0,1-1.817.345,10.8,10.8,0,0,1-1.363.037,8.98,8.98,0,0,1-5.071-1.687,8.417,8.417,0,0,1-3.1-4.319,9.145,9.145,0,0,1-.439-2.611,9.814,9.814,0,0,1,.277-2.731,8.444,8.444,0,0,1,5.943-6.2,9.617,9.617,0,0,1,1.927-.345,9.953,9.953,0,0,1,1.932,0,8.685,8.685,0,0,1,5.478,2.611,8.6,8.6,0,0,1,2.193,4.052A9.859,9.859,0,0,1,167.934,23.884Zm-13.128.219a10.227,10.227,0,0,0,.151,1.781,5.182,5.182,0,0,0,.522,1.467,3.6,3.6,0,0,0,2.763,1.917,4.771,4.771,0,0,0,1.279,0,3.656,3.656,0,0,0,3.159-2.522,6.942,6.942,0,0,0,.376-2.031,9.447,9.447,0,0,0-.1-2.089,5.483,5.483,0,0,0-.433-1.462,3.579,3.579,0,0,0-2.345-2.016,4.659,4.659,0,0,0-2.089-.084,3.563,3.563,0,0,0-2.648,1.948,4.782,4.782,0,0,0-.371.966,8.68,8.68,0,0,0-.266,2.125Z" transform="translate(-71.633 -7.297)" fill="#fff"/>
      <path id="Path_62" data-name="Path 62" d="M98.569,32.69H93.8a1.236,1.236,0,0,1-.031-.151v-11a8.711,8.711,0,0,1,.115-1.52,4.924,4.924,0,0,1,2.256-3.488,7.743,7.743,0,0,1,2.454-1.018,12.8,12.8,0,0,1,1.995-.292,14.973,14.973,0,0,1,2.371,0,9.865,9.865,0,0,1,3.321.8,7.788,7.788,0,0,1,.977.522,4.839,4.839,0,0,1,2.026,2.783,7.6,7.6,0,0,1,.266,1.781v11.5a.36.36,0,0,1-.277.052h-4.59a.794.794,0,0,1,0-.141V22.063a6.1,6.1,0,0,0-.073-1.112,3.317,3.317,0,0,0-.245-.809,1.886,1.886,0,0,0-.9-.914,3.33,3.33,0,0,0-1.206-.319,6.88,6.88,0,0,0-1.227,0,3.442,3.442,0,0,0-1.133.277,1.905,1.905,0,0,0-1.008,1.044,2.836,2.836,0,0,0-.23.841,8.119,8.119,0,0,0-.063.872v10.4A2.486,2.486,0,0,0,98.569,32.69Z" transform="translate(-44.802 -7.283)" fill="#fff"/>
      <path id="Path_63" data-name="Path 63" d="M129.214,12.117H126.88a1.075,1.075,0,0,1-.031-.141V8.483a.391.391,0,0,1,0-.078c.068-.068.151-.042.23-.042h2.089a.605.605,0,0,0,.037-.313c0-.6,0-1.2.026-1.8a7.152,7.152,0,0,1,.731-2.836,5.746,5.746,0,0,1,3.1-2.846A7.553,7.553,0,0,1,135.12.049a10.487,10.487,0,0,1,1.718-.037,7.683,7.683,0,0,1,1.749.261l.235.073a.876.876,0,0,1,.11.063V4.357a.729.729,0,0,1-.026.12l-.162-.037a6.261,6.261,0,0,0-1.112-.266,5.524,5.524,0,0,0-1.525-.026,2.125,2.125,0,0,0-1.347.757,2.748,2.748,0,0,0-.621,1.4,6.719,6.719,0,0,0-.052.731V8.326a.59.59,0,0,0,.3.031h2.857c0,.078.026.146.026.214v3.483c-.094.084-.188.052-.277.052h-2.872a.3.3,0,0,1-.031.167c-.031.052,0,.183,0,.272V25.4a.521.521,0,0,1-.308.042h-4.543a1.061,1.061,0,0,1-.026-.167V12.509C129.219,12.389,129.214,12.274,129.214,12.117Z" transform="translate(-60.606 -0.031)" fill="#fff"/>
      <path id="Path_64" data-name="Path 64" d="M82.813,25.867H77.738a.361.361,0,0,1,0-.089V.968a.42.42,0,0,1,0-.089h.125c.648-.026,4.7,0,4.924,0a1.223,1.223,0,0,1,0,.151V25.486A1.225,1.225,0,0,1,82.813,25.867Z" transform="translate(-37.141 -0.449)" fill="#fff"/>
      <path id="Path_65" data-name="Path 65" d="M286.832,54.952c.125.037.225.057.313.089a1.368,1.368,0,0,1,.522.355,1.046,1.046,0,0,1,.282.637,1.332,1.332,0,0,1-.736,1.353,2.162,2.162,0,0,1-1.044.256h-2.021a.471.471,0,0,1-.094,0,.027.027,0,0,1-.026-.031.044.044,0,0,1,0-.026V52.728a.236.236,0,0,1,.026-.068h2.057a2.282,2.282,0,0,1,.877.162,1.507,1.507,0,0,1,.381.209,1,1,0,0,1,.186,1.406l0,0a1.456,1.456,0,0,1-.554.433Zm-1.567.554a6.964,6.964,0,0,0-.037,1.185.89.89,0,0,0,.037.11h.825a.887.887,0,0,0,.4-.157.616.616,0,0,0-.063-1.013.944.944,0,0,0-.2-.084,4.006,4.006,0,0,0-.971-.042Zm-.026-.856h.627a.851.851,0,0,0,.386-.12.564.564,0,0,0,.266-.559.475.475,0,0,0-.386-.439.575.575,0,0,0-.157-.031c-.193,0-.381-.026-.574-.031a.943.943,0,0,0-.162.026Z" transform="translate(-135.704 -25.195)" fill="#fff"/>
      <path id="Path_66" data-name="Path 66" d="M277.688,57.6H276.45c-.157-.35-.235-.726-.386-1.081a2.479,2.479,0,0,0-.621-.031h-.6a3.291,3.291,0,0,0-.637.026c-.125.355-.245.715-.366,1.044a7.483,7.483,0,0,1-1.243,0,.235.235,0,0,1,.042-.225l.982-2.569.736-1.937c.031-.084.068-.167.1-.251h1.41q.914,2.449,1.817,4.9C278.591,59.938,277.688,57.567,277.688,57.6Zm-1.911-2.016-.653-2c-.2.689-.449,1.321-.637,1.974a6.614,6.614,0,0,0,1.29.026Z" transform="translate(-130.236 -25.157)" fill="#fff"/>
      <path id="Path_67" data-name="Path 67" d="M293.11,57.382V56.337c.094-.026.141.042.2.078a2.372,2.372,0,0,0,1.321.366,1.28,1.28,0,0,0,.522-.12.413.413,0,0,0,.12-.715,1.58,1.58,0,0,0-.381-.256c-.193-.1-.4-.178-.6-.261a2.841,2.841,0,0,1-.621-.334,1.326,1.326,0,0,1-.564-1.431,1.185,1.185,0,0,1,.522-.773,2.089,2.089,0,0,1,.961-.36,4.35,4.35,0,0,1,1.494.047,1.391,1.391,0,0,1,.329.089,3.024,3.024,0,0,1,0,1.044l-.172-.073a2.449,2.449,0,0,0-1.191-.225,1.129,1.129,0,0,0-.47.131.407.407,0,0,0-.208.537.413.413,0,0,0,.13.163,1.465,1.465,0,0,0,.319.209c.162.078.329.146.522.219a4.661,4.661,0,0,1,.564.272,1.773,1.773,0,0,1,.3.193,1.283,1.283,0,0,1,.522,1.013,1.31,1.31,0,0,1-.773,1.3,2.151,2.151,0,0,1-.757.209,4.392,4.392,0,0,1-1.65-.094A3.124,3.124,0,0,0,293.11,57.382Z" transform="translate(-140.023 -25.112)" fill="#fff"/>
      <path id="Path_68" data-name="Path 68" d="M269.03,56.766v.888a.929.929,0,0,1-.141.026h-2.94a.411.411,0,0,1-.037-.272V52.714a1.964,1.964,0,0,1,.574-.031h.564a.449.449,0,0,1,.047.3V56.75a2.126,2.126,0,0,0,.475,0h1.447Z" transform="translate(-127.045 -25.202)" fill="#fff"/>
      <path id="Path_69" data-name="Path 69" d="M33.756,26.734s6.69-7.311,7.311-16.6-3.5-7.311-3.5-7.311-2.146.235-6.136,4.522H30.56S32.43,2.367,37.051.2c0,0,8.94-3.107,7.462,11.64A25.683,25.683,0,0,1,34.5,27.287Z" transform="translate(-14.601 0)" fill="#ffc515"/>
      <path id="Path_70" data-name="Path 70" d="M26.419,17.123s-9.7-2.011-18.011,2.188-4.475,6.737-4.475,6.737,1.3,1.723,7.024,2.961l.46.736a14.16,14.16,0,0,1-9.468-1.927S-5.29,21.724,8.136,15.457a25.7,25.7,0,0,1,18.4.71Z" transform="translate(0 -6.761)" fill="#52c6d9"/>
      <path id="Path_71" data-name="Path 71" d="M16.058,23.93s3.065,9.4,10.841,14.554,8.068.522,8.068.522.851-1.984-.919-7.572l.413-.757s3.42,4.078,3.029,9.17c0,0-1.692,9.311-13.8.768A25.711,25.711,0,0,1,15.17,24.29Z" transform="translate(-7.248 -11.468)" fill="#ee4380"/>
    </g>
    <g id="Group_994" data-name="Group 994" transform="translate(-966 -41.629)">
      <text id="Employee_Management_System" data-name="Employee Management System" transform="translate(993 119.629)" fill="#aaaaac" font-size="13" font-family="Roboto-Regular, Roboto"><tspan x="0" y="0">Employee Management System</tspan></text>
    </g>
  </g>
</svg>
